<?xml version="1.0" standalone="no"?>
<!DOCTYPE svg PUBLIC "-//W3C//DTD SVG 20010904//EN"
 "http://www.w3.org/TR/2001/REC-SVG-20010904/DTD/svg10.dtd">
<svg version="1.0" xmlns="http://www.w3.org/2000/svg"
 width="1668.000000pt" height="1668.000000pt" viewBox="0 0 1668.000000 1668.000000"
 preserveAspectRatio="xMidYMid meet">

<g transform="translate(0.000000,1668.000000) scale(0.100000,-0.100000)"
fill="#000000" stroke="none">
<path d="M8660 16390 c-36 -5 -85 -17 -110 -28 -111 -48 -264 -195 -321 -309
-33 -67 -34 -71 -34 -193 0 -83 7 -158 20 -225 11 -55 19 -105 19 -111 -2 -14
88 3 98 19 5 8 13 8 30 0 14 -6 32 -7 46 -2 29 11 142 -12 215 -45 31 -13 59
-21 63 -18 4 4 4 2 1 -4 -3 -6 14 -20 40 -33 l47 -23 19 24 c80 99 231 392
247 479 14 75 -2 214 -31 270 -25 49 -118 151 -163 178 -39 24 -103 31 -186
21z m-250 -254 c0 -2 -8 -10 -17 -17 -16 -13 -17 -12 -4 4 13 16 21 21 21 13z"/>
<path d="M7100 15509 c-101 -10 -266 -56 -509 -143 -97 -35 -214 -76 -261 -91
-128 -41 -353 -126 -367 -137 -9 -7 -48 -7 -121 1 -59 6 -242 14 -407 17 -164
3 -337 9 -384 13 -85 8 -88 8 -351 -61 -146 -38 -276 -74 -290 -80 -14 -6 -31
-10 -39 -9 -8 1 -10 -2 -5 -10 4 -8 3 -10 -4 -5 -26 16 -91 -11 -225 -92 -985
-590 -1847 -1416 -2479 -2374 -644 -974 -1052 -2078 -1197 -3238 -73 -580 -71
-1263 5 -1865 69 -549 274 -1368 384 -1530 23 -33 47 -74 54 -91 20 -44 214
-375 290 -491 35 -55 81 -114 102 -132 56 -48 186 -166 348 -316 79 -73 176
-152 221 -180 105 -65 190 -140 310 -271 94 -104 127 -131 337 -275 29 -20
101 -62 160 -93 l106 -56 -25 -28 c-13 -15 -48 -63 -76 -107 -28 -44 -85 -114
-127 -156 -104 -105 -370 -324 -498 -410 -59 -40 -136 -97 -171 -128 -36 -31
-79 -67 -96 -81 -18 -14 -69 -56 -114 -93 -80 -68 -81 -69 -81 -115 0 -26 11
-72 24 -103 29 -71 138 -238 200 -306 89 -98 276 -236 462 -340 49 -28 146
-89 215 -135 130 -89 206 -133 457 -268 85 -45 222 -123 305 -173 84 -51 238
-132 342 -182 105 -49 279 -133 387 -187 108 -53 227 -106 265 -117 144 -44
508 -91 703 -91 94 -1 170 -8 268 -26 26 -5 38 -2 58 17 29 27 30 46 5 73 -15
17 -28 86 -66 348 l-47 327 4 263 c4 250 6 267 32 353 50 169 100 297 168 437
55 114 71 138 85 134 246 -77 401 -115 653 -162 200 -36 527 -104 765 -158
123 -28 313 -61 495 -86 162 -22 403 -56 535 -75 342 -49 946 -115 1051 -115
20 0 22 -9 38 -202 9 -112 19 -226 22 -253 l6 -51 -59 -23 c-110 -45 -418
-200 -525 -264 -220 -133 -417 -304 -500 -432 -158 -244 -62 -518 200 -574 76
-16 199 -14 263 5 272 80 540 336 651 620 47 121 60 203 67 413 l6 194 355
142 c195 79 356 142 358 140 2 -2 -17 -43 -42 -92 -106 -212 -190 -442 -184
-504 2 -24 11 -38 30 -49 26 -14 31 -13 71 8 25 13 68 52 99 90 31 37 91 110
135 164 44 53 100 119 124 146 43 48 45 49 41 21 -6 -42 21 -79 59 -79 45 0
80 30 160 138 40 53 75 100 78 104 4 4 5 -54 3 -130 -3 -124 -1 -140 17 -170
24 -38 63 -55 103 -46 61 13 219 160 361 337 l47 58 0 -41 c0 -46 21 -94 45
-104 9 -3 34 -6 54 -6 53 0 101 38 200 156 45 55 85 99 89 98 4 0 30 -11 57
-24 36 -17 68 -24 115 -24 l66 0 -4 -32 c-8 -63 39 -83 205 -89 109 -4 175
-19 379 -89 227 -79 268 -81 316 -16 21 29 53 198 44 235 -8 30 -51 44 -72 23
-8 -7 -19 -41 -26 -73 -20 -105 -29 -135 -40 -135 -6 0 -98 29 -203 65 -106
36 -199 65 -208 65 -15 0 -15 3 -2 33 8 17 17 53 20 80 6 47 7 47 44 47 65 0
448 117 596 183 55 24 156 63 225 87 69 23 134 51 145 60 11 10 52 28 90 40
128 41 368 152 405 185 38 36 136 98 228 144 55 28 251 173 337 250 103 92
380 409 552 633 307 399 562 804 782 1243 84 170 181 377 181 390 0 1 -24 6
-52 10 -351 44 -502 93 -846 273 -214 112 -238 127 -386 237 -272 202 -468
375 -730 646 -178 184 -271 299 -382 471 -98 152 -148 250 -273 539 -159 368
-219 535 -290 814 -17 66 -43 158 -57 205 -23 74 -28 111 -34 290 -6 143 -14
231 -28 290 -10 47 -27 182 -36 300 -10 118 -31 303 -46 410 -34 225 -56 415
-65 550 -16 239 -49 547 -86 790 -47 320 -53 349 -135 710 -78 339 -98 415
-163 597 -174 492 -300 708 -519 891 -62 51 -166 141 -230 198 -64 58 -157
136 -207 173 -93 70 -126 90 -360 211 -77 40 -162 85 -190 100 -27 14 -99 48
-160 75 -60 26 -115 53 -122 59 -7 6 -41 76 -77 154 -80 175 -130 251 -252
386 -115 129 -181 173 -446 306 -183 91 -222 106 -393 154 -160 45 -193 51
-210 41 -11 -7 -65 -17 -120 -23 -88 -10 -111 -9 -190 8 -123 27 -233 83 -260
132 -23 43 -34 47 -225 72 -297 40 -682 55 -890 35z m695 -1944 c405 -50 986
-206 1259 -338 176 -85 432 -264 625 -435 40 -36 123 -126 185 -200 61 -74
180 -218 264 -319 183 -222 212 -260 295 -395 121 -195 198 -373 271 -629 94
-328 123 -580 113 -974 -8 -303 -47 -632 -123 -1035 -62 -330 -120 -549 -259
-985 -41 -126 -90 -288 -110 -360 -20 -71 -61 -211 -90 -310 -83 -276 -98
-355 -120 -628 -20 -251 -20 -597 1 -736 23 -161 72 -383 106 -490 37 -116 76
-196 203 -410 53 -90 118 -207 145 -260 34 -68 64 -111 100 -146 29 -27 70
-73 92 -102 21 -29 57 -65 78 -78 72 -46 50 -61 -100 -68 -85 -4 -152 -15
-260 -42 -79 -20 -232 -50 -340 -66 -138 -22 -224 -41 -295 -65 -402 -141
-808 -265 -1045 -318 -198 -44 -900 -161 -1175 -196 -371 -47 -901 -76 -1195
-66 -379 13 -963 95 -1252 176 -124 34 -518 173 -638 225 -120 51 -306 151
-515 275 -342 205 -517 342 -786 618 -237 241 -303 344 -455 699 -42 98 -122
279 -179 403 -119 261 -244 567 -309 760 -90 269 -209 776 -241 1030 -22 171
-32 777 -16 920 25 218 88 552 140 735 93 330 283 729 518 1090 203 311 276
403 638 805 308 343 423 456 630 621 484 386 648 495 1046 694 317 159 389
188 829 336 512 173 825 242 1210 268 218 14 624 12 755 -4z m4890 -8559 c13
-13 29 -43 35 -67 11 -39 10 -149 -1 -189 -3 -12 10 -16 61 -20 36 -4 79 -14
95 -24 43 -25 82 -81 101 -141 l17 -52 81 -6 c45 -3 111 -15 147 -26 76 -24
178 -86 209 -129 l22 -30 73 39 c79 43 178 69 264 69 50 0 57 -3 91 -39 21
-22 51 -66 66 -98 24 -49 29 -73 32 -156 4 -92 2 -101 -22 -137 -38 -57 -92
-89 -172 -102 -38 -6 -70 -12 -71 -12 -1 -1 4 -24 12 -51 21 -68 19 -112 -4
-125 -53 -28 -132 3 -172 66 l-21 35 -23 -56 c-13 -31 -35 -74 -50 -95 -45
-65 -158 -166 -220 -197 -73 -37 -230 -83 -282 -83 -30 0 -40 -5 -48 -22 -9
-19 -5 -30 17 -61 14 -21 30 -52 33 -68 5 -22 15 -34 36 -41 29 -10 44 -39 37
-75 -1 -10 -21 -27 -43 -38 -36 -18 -60 -20 -255 -20 -190 0 -219 2 -243 18
-33 21 -36 58 -7 95 12 15 41 54 65 86 l45 59 -25 25 c-14 14 -25 30 -25 37 0
8 -18 15 -47 17 -82 8 -329 86 -426 134 -135 68 -194 112 -335 248 -108 105
-137 140 -192 232 -104 174 -178 273 -235 312 -22 14 -68 52 -103 84 -34 32
-96 80 -137 108 -41 28 -75 56 -75 63 1 45 47 57 218 57 l147 0 59 -40 c32
-22 63 -40 67 -40 5 0 53 -22 107 -49 54 -26 120 -53 148 -60 56 -13 504 -20
547 -8 15 4 27 14 27 23 0 59 160 254 209 254 24 0 36 17 23 33 -6 7 -18 38
-27 70 -35 120 17 215 118 217 16 0 38 -10 52 -24z m1985 -1080 c0 -2 -8 -10
-17 -17 -16 -13 -17 -12 -4 4 13 16 21 21 21 13z m-30 -40 c0 -2 -8 -10 -17
-17 -16 -13 -17 -12 -4 4 13 16 21 21 21 13z m-30 -40 c0 -2 -8 -10 -17 -17
-16 -13 -17 -12 -4 4 13 16 21 21 21 13z m-70 -90 c0 -2 -8 -10 -17 -17 -16
-13 -17 -12 -4 4 13 16 21 21 21 13z m-40 -50 c0 -2 -8 -10 -17 -17 -16 -13
-17 -12 -4 4 13 16 21 21 21 13z m-40 -50 c0 -2 -8 -10 -17 -17 -16 -13 -17
-12 -4 4 13 16 21 21 21 13z m-40 -49 c0 -2 -10 -12 -22 -23 l-23 -19 19 23
c18 21 26 27 26 19z m-50 -60 c0 -2 -12 -14 -27 -28 l-28 -24 24 28 c23 25 31
32 31 24z m-60 -70 c0 -2 -12 -14 -27 -28 l-28 -24 24 28 c23 25 31 32 31 24z
m-80 -90 c0 -2 -15 -16 -32 -33 l-33 -29 29 33 c28 30 36 37 36 29z m-90 -100
c0 -1 -28 -29 -62 -62 l-63 -60 60 63 c55 58 65 67 65 59z m-4670 -1007 c259
-12 804 -30 907 -30 46 0 73 -4 73 -11 0 -25 -197 -325 -207 -315 -3 2 1 20 8
40 17 48 1 86 -39 86 -21 0 -45 -18 -108 -82 -90 -92 -184 -200 -289 -330 -38
-48 -71 -86 -72 -84 -13 12 230 529 266 565 24 24 26 40 7 66 -16 23 -74 25
-90 3 -17 -23 -77 -51 -263 -122 -92 -36 -253 -101 -358 -144 l-190 -78 -17
195 c-9 108 -17 211 -17 230 l-1 34 88 -7 c48 -3 184 -10 302 -16z m1387 -58
l102 -7 -72 -97 c-108 -145 -213 -264 -297 -335 l-75 -65 -7 34 c-15 66 13
254 62 418 l21 71 82 -6 c45 -4 128 -10 184 -13z m391 -27 c3 -3 -152 -187
-177 -209 -33 -30 -42 -11 -31 64 6 36 15 86 21 112 l11 48 86 -6 c48 -4 88
-8 90 -9z m295 -17 c-27 -7 -54 -7 -80 0 -34 9 -31 10 42 10 75 0 77 -1 38
-10z m333 -25 c-11 -63 -16 -70 -45 -82 -21 -9 -45 -9 -97 -1 -127 20 -125 17
-39 60 43 22 83 44 89 50 5 5 30 10 54 10 l44 0 -6 -37z m-2852 -495 c17 -85
-19 -367 -60 -476 -67 -178 -203 -349 -364 -459 -60 -41 -163 -92 -219 -109
-62 -19 -185 -18 -252 2 -69 20 -142 92 -160 156 -16 60 -6 144 25 209 51 110
209 263 401 391 107 71 581 318 611 318 6 0 14 -15 18 -32z"/>
<path d="M7135 13510 c-318 -20 -501 -47 -780 -116 -188 -47 -720 -221 -935
-306 -245 -97 -680 -320 -858 -440 -241 -162 -690 -518 -839 -665 -127 -125
-594 -643 -701 -777 -231 -288 -519 -767 -662 -1101 -110 -255 -193 -580 -252
-975 -20 -138 -22 -191 -22 -470 2 -481 25 -665 139 -1130 106 -427 210 -717
430 -1195 45 -99 115 -256 155 -350 170 -398 228 -489 463 -731 292 -300 496
-453 948 -710 307 -174 803 -363 1140 -435 172 -36 566 -93 799 -115 213 -20
754 -15 1055 10 350 30 907 110 1395 202 294 55 717 176 1116 318 163 58 202
67 384 96 111 17 271 49 356 70 85 21 174 42 199 46 25 3 45 8 45 11 0 16 -31
57 -90 118 -52 52 -82 96 -123 175 -29 58 -92 170 -139 250 -185 314 -212 382
-278 710 -48 237 -60 383 -54 653 10 405 45 660 124 912 23 72 66 218 96 325
30 107 84 283 119 390 151 465 232 796 299 1225 61 391 76 569 76 893 0 341
-13 461 -77 717 -107 431 -254 721 -534 1055 -67 80 -175 211 -241 292 -66 81
-154 183 -196 226 -128 130 -365 310 -563 427 -242 143 -831 316 -1292 380
-135 19 -508 27 -702 15z m1911 -2591 c17 -19 17 -23 3 -47 -11 -20 -26 -29
-59 -35 -239 -45 -828 -206 -1105 -302 -147 -50 -155 -55 -100 -49 33 3 213
35 400 71 755 144 1007 178 1050 143 19 -16 19 -54 0 -74 -31 -30 -273 -97
-835 -230 -630 -150 -753 -180 -741 -184 10 -3 162 18 621 87 347 53 493 69
677 77 133 6 155 5 177 -10 31 -20 34 -56 7 -80 -24 -22 -82 -38 -591 -166
-728 -181 -725 -181 -650 -174 36 2 160 18 275 34 280 39 468 57 719 71 275
15 407 10 435 -15 26 -23 27 -47 4 -75 -26 -30 -273 -97 -923 -250 l-45 -11
45 5 c25 3 113 8 197 12 132 5 155 4 177 -11 32 -20 33 -41 4 -60 -23 -15
-419 -57 -663 -71 -140 -8 -253 7 -277 36 -23 27 -23 44 1 68 25 25 38 29 396
106 165 36 388 87 495 114 l195 49 -85 -5 c-169 -9 -410 -34 -670 -70 -230
-32 -291 -37 -460 -38 -222 0 -253 7 -258 61 -6 57 32 73 388 160 576 140 691
169 682 172 -5 1 -157 -20 -338 -47 -527 -81 -625 -92 -840 -98 l-202 -6 -17
27 c-27 41 -9 69 62 96 32 12 225 64 428 116 204 51 366 93 360 94 -5 0 -50
-7 -100 -16 -55 -10 -149 -17 -241 -18 -136 -1 -154 1 -173 18 -51 46 -12 88
140 148 l109 43 -58 5 c-49 4 -57 8 -60 27 -4 28 -3 29 423 117 403 84 567
120 765 171 161 40 228 44 256 14z m-3506 -245 c10 -11 11 -23 4 -42 -8 -24
-23 -31 -139 -65 -200 -58 -918 -307 -840 -292 426 88 686 132 873 150 62 6
76 4 93 -10 10 -10 19 -26 19 -35 0 -35 -24 -51 -95 -60 -118 -16 -445 -73
-441 -77 2 -2 83 3 180 11 306 27 455 31 498 13 41 -17 57 -52 39 -85 -13 -25
-88 -54 -234 -91 -103 -27 -106 -29 -67 -34 51 -7 80 -31 80 -67 0 -64 -110
-121 -375 -195 l-120 -34 106 0 c123 -1 169 -8 169 -26 0 -18 -47 -32 -145
-46 -44 -5 -244 -35 -445 -65 -201 -30 -436 -60 -522 -66 -141 -10 -160 -9
-183 6 -32 21 -33 60 -2 80 25 16 90 31 642 146 347 73 619 140 635 157 17 18
-308 -27 -625 -87 -337 -63 -451 -80 -596 -87 -130 -6 -137 -5 -158 16 -43 43
-20 79 69 105 30 9 199 41 375 71 319 55 978 185 971 192 -3 4 -251 -18 -656
-57 -254 -25 -836 -38 -869 -20 -27 14 -29 65 -3 78 9 5 37 12 62 16 96 15
342 80 503 133 92 31 166 57 164 59 -1 2 -93 -13 -202 -32 -136 -25 -234 -37
-307 -38 -167 -2 -156 12 54 71 206 58 271 73 618 138 307 57 515 105 650 150
116 38 199 45 220 19z m1182 -1298 c14 -33 -5 -94 -82 -252 -63 -131 -101
-174 -151 -174 -64 0 -116 46 -198 177 -63 99 -65 126 -9 131 35 3 39 0 82
-60 25 -35 60 -83 77 -107 l32 -44 20 24 c24 28 97 183 121 254 22 64 32 75
67 75 21 0 32 -7 41 -24z m439 -592 c9 -11 24 -133 46 -388 18 -204 32 -386
33 -405 0 -34 0 -34 20 -16 20 18 24 18 133 -9 136 -33 434 -76 525 -76 66 0
102 -16 102 -45 0 -22 -76 -161 -120 -218 -36 -49 -154 -257 -144 -257 11 0
235 137 269 164 122 100 193 194 275 362 51 105 94 164 119 164 26 -1 31 -18
20 -70 -30 -140 -124 -309 -241 -434 -87 -94 -171 -154 -345 -251 -68 -37
-123 -69 -123 -71 0 -9 144 -75 255 -117 201 -76 385 -117 524 -117 51 0 81
-21 81 -56 0 -44 -32 -53 -160 -43 -193 15 -463 95 -674 201 -54 27 -102 46
-106 41 -44 -47 -182 -278 -263 -442 -97 -195 -102 -208 -100 -263 2 -52 0
-60 -22 -74 -19 -12 -25 -25 -25 -50 0 -36 -28 -74 -55 -74 -20 0 -55 36 -55
56 0 12 -6 15 -22 10 -67 -19 -218 -46 -333 -60 -71 -8 -209 -25 -305 -36
-253 -30 -352 -45 -665 -100 -510 -89 -458 -85 -965 -85 -539 0 -575 2 -589
31 -5 11 -6 25 -3 31 11 16 48 33 72 33 15 0 20 5 17 14 -14 36 -19 136 -27
571 -8 430 -11 491 -38 715 -35 278 -45 419 -68 884 -14 292 -14 330 -1 344
24 23 43 8 51 -38 l6 -41 98 6 c194 12 443 37 707 70 325 41 475 52 785 60
509 13 640 21 730 45 144 38 228 48 401 49 142 1 169 -1 180 -15z m-3559 -681
c14 -16 65 -83 112 -150 119 -168 200 -255 345 -370 95 -76 112 -118 69 -167
-26 -28 -200 -139 -324 -206 -86 -46 -127 -49 -139 -10 -11 35 4 56 58 85 78
41 307 179 306 185 0 3 -32 30 -70 60 -137 107 -321 327 -413 492 -25 45 -33
87 -19 101 15 15 51 5 75 -20z"/>
<path d="M8008 10413 c7 -3 16 -2 19 1 4 3 -2 6 -13 5 -11 0 -14 -3 -6 -6z"/>
<path d="M6895 8688 c-140 -5 -187 -11 -265 -33 -88 -24 -121 -27 -450 -41
-754 -30 -790 -33 -1110 -73 -408 -51 -560 -63 -685 -53 -55 5 -101 8 -103 7
-1 -1 4 -56 12 -121 9 -66 22 -240 31 -389 15 -249 27 -372 70 -730 10 -87 17
-259 21 -515 3 -212 9 -432 14 -489 6 -57 7 -107 4 -112 -5 -9 316 -13 681
-10 174 2 343 23 685 86 249 45 543 88 835 120 230 26 325 41 442 72 62 16 62
16 68 57 3 22 1 392 -4 821 -8 720 -11 803 -35 1080 -15 165 -30 307 -34 315
-6 13 -31 14 -177 8z m-900 -1103 c38 -19 40 -22 41 -70 2 -60 -22 -189 -41
-226 -8 -15 -28 -38 -45 -53 -30 -25 -37 -26 -150 -26 -174 0 -244 25 -352
129 -39 36 -49 76 -26 99 17 17 63 15 78 -3 31 -37 164 -1 197 54 44 71 66 99
86 110 35 17 166 9 212 -14z"/>
<path d="M5660 7330 c0 -5 5 -10 11 -10 5 0 7 5 4 10 -3 6 -8 10 -11 10 -2 0
-4 -4 -4 -10z"/>
<path d="M7247 7366 c2 -303 5 -580 9 -615 l6 -64 77 149 c42 82 112 201 154
264 42 63 77 122 77 131 0 9 6 22 14 28 7 6 21 33 31 59 31 83 147 294 207
378 32 44 58 83 58 86 0 3 -34 8 -74 11 -95 8 -372 53 -451 73 -33 8 -71 23
-85 33 l-25 18 2 -551z"/>
<path d="M12580 4941 c-12 -24 -13 -92 -1 -124 8 -20 15 -24 48 -22 l38 3 -1
55 c-2 88 -10 107 -44 107 -19 0 -33 -7 -40 -19z"/>
<path d="M12567 4656 c-34 -9 -63 -28 -97 -61 -45 -45 -107 -141 -97 -151 2
-3 35 2 73 11 134 30 280 53 372 58 52 3 96 8 99 11 11 10 -23 78 -54 108 -33
32 -35 33 -141 35 -67 2 -125 -2 -155 -11z"/>
<path d="M11150 4544 c20 -16 56 -51 80 -78 25 -27 70 -66 101 -87 92 -62 187
-191 270 -364 47 -99 169 -219 320 -318 174 -114 374 -200 506 -218 43 -6 81
-13 85 -15 4 -3 59 -11 121 -18 201 -24 460 15 603 88 56 29 78 48 117 101 26
35 55 81 63 102 8 21 27 63 42 93 24 49 27 66 26 155 0 81 -6 115 -27 179 -15
43 -36 93 -47 111 -34 55 -106 106 -201 141 l-89 34 -188 0 c-128 0 -205 -4
-242 -14 -30 -8 -93 -19 -140 -25 -47 -6 -101 -16 -120 -22 -97 -29 -564 -41
-705 -18 -33 6 -87 25 -120 43 -33 18 -73 36 -89 40 -16 4 -48 20 -70 35 -83
57 -116 68 -226 76 l-105 7 35 -28z m1984 -646 c8 -14 5 -23 -14 -44 -14 -14
-38 -33 -55 -41 -16 -8 -37 -24 -45 -35 -20 -24 -179 -72 -328 -98 -141 -25
-294 -27 -316 -5 -14 14 -12 45 3 45 184 6 250 11 316 24 135 27 258 66 285
91 14 12 39 30 56 38 17 9 36 23 44 32 16 19 39 16 54 -7z"/>
<path d="M13685 4355 c-5 -2 -28 -9 -50 -14 -22 -6 -64 -25 -93 -41 l-52 -30
21 -41 20 -41 22 19 c12 11 32 29 45 40 27 24 64 33 138 33 61 0 88 -20 104
-79 26 -95 -5 -148 -118 -203 -82 -39 -100 -53 -118 -97 -33 -78 -1 -151 66
-151 26 0 30 4 30 26 0 31 -20 105 -32 118 -4 6 -8 15 -8 22 0 15 71 44 108
44 42 1 107 34 132 70 20 28 22 40 18 108 -5 77 -23 128 -70 195 -18 25 -24
27 -86 26 -37 0 -71 -2 -77 -4z"/>
<path d="M13658 4213 c-15 -2 -48 -23 -73 -46 l-45 -42 7 -78 8 -78 31 28 c32
30 64 48 104 59 14 3 40 17 58 31 27 20 32 30 32 67 0 23 -5 47 -12 54 -12 12
-54 13 -110 5z"/>
<path d="M12659 3356 c36 -17 94 -20 126 -6 16 7 11 9 -21 9 -23 1 -63 3 -90
7 l-49 5 34 -15z"/>
<path d="M12825 3294 c-19 -8 -59 -13 -108 -12 l-77 1 -30 -42 -30 -41 142 1
c79 0 150 3 159 7 13 6 13 13 1 55 -15 52 -14 51 -57 31z"/>
<path d="M12936 3157 c-24 -18 -17 -35 10 -28 15 4 19 11 15 24 -6 15 -9 16
-25 4z"/>
<path d="M12521 3147 c-18 -18 -13 -27 14 -27 15 0 25 6 25 14 0 19 -25 27
-39 13z"/>
<path d="M12715 3130 c-17 -7 -15 -9 13 -9 17 -1 32 4 32 9 0 12 -17 12 -45 0z"/>
<path d="M12795 3130 c-4 -6 10 -10 34 -10 23 0 41 5 41 10 0 6 -15 10 -34 10
-19 0 -38 -4 -41 -10z"/>
<path d="M12623 3123 c9 -2 23 -2 30 0 6 3 -1 5 -18 5 -16 0 -22 -2 -12 -5z"/>
<path d="M8597 1392 c-25 -28 -21 -85 13 -166 76 -181 138 -131 81 64 -35 117
-58 142 -94 102z"/>
<path d="M8165 1154 c-8 -9 -15 -27 -15 -42 0 -37 48 -129 83 -158 30 -25 67
-34 50 -11 -5 6 -24 58 -42 114 -33 104 -49 124 -76 97z"/>
<path d="M8618 981 c-31 -39 -117 -98 -148 -103 -17 -2 -26 -10 -28 -25 -3
-18 4 -24 37 -34 34 -10 47 -9 85 5 104 40 176 132 134 174 -21 21 -55 13 -80
-17z"/>
</g>
</svg>
